<svg xmlns="http://www.w3.org/2000/svg" width="512" height="512" viewBox="0 0 512 512">
    <path d="M48 512c-26.5 0-48-21.5-48-48V48C0 21.5 21.5 0 48 0h304l160 160v304c0 26.5-21.5 48-48 48H48z" fill="#15C"/>
    <path d="M512 160H400c-26.5 0-48-21.5-48-48V0L512 160z" fill="#9BF"/>
    <path d="M82.1 448H64V189.6h18.1v20.7c3.1-1.7 7.2-4.1 12.4-7 5.2-2.9 15.2-6.7 30.2-11.4 15-4.7 30.4-7 46.3-7 31.7 0 53.4 9.3 65.1 27.9 12.4-7.2 27.6-13.7 45.5-19.4 17.9-5.7 34.5-8.5 49.6-8.5 34.5 0 57.2 8.7 68.2 26.1C410.5 228.4 416 262.6 416 313.6V448h-18.1V314.7c0-45.5-4.1-75.7-12.4-90.7 -8.3-15-26.4-22.5-54.3-22.5 -14.8 0-29.6 2.2-44.5 6.5 -14.8 4.3-25.8 8.5-33.1 12.7l-11.4 6.2c6.2 16.9 9.3 45.9 9.3 86.9V448h-18.1V314.7c0-45.5-4.1-75.7-12.4-90.7 -8.3-15-26.4-22.5-54.3-22.5 -13.8 0-27.7 2.2-41.9 6.5 -14.1 4.3-24.8 8.5-32 12.7l-10.9 6.7V448z" fill="#FFF"/>
</svg>
