<?xml version="1.0" encoding="utf-8"?>
<!-- Generator: Adobe Illustrator 15.1.0, SVG Export Plug-In  -->
<!DOCTYPE svg PUBLIC "-//W3C//DTD SVG 1.1//EN" "http://www.w3.org/Graphics/SVG/1.1/DTD/svg11.dtd" [
	<!ENTITY ns_flows "http://ns.adobe.com/Flows/1.0/">
]>
<svg version="1.1"
	 xmlns="http://www.w3.org/2000/svg" xmlns:xlink="http://www.w3.org/1999/xlink" xmlns:a="http://ns.adobe.com/AdobeSVGViewerExtensions/3.0/"
	 x="0px" y="0px" width="512px" height="256px" viewBox="0 256 512 256" enable-background="new 0 256 512 256"
	 xml:space="preserve">
<defs>
</defs>
<path display="none" fill="#1155CC" d="M82.087,448H64V189.553h18.087v20.683c3.099-1.725,7.236-4.052,12.403-6.969
	c5.173-2.93,15.249-6.73,30.244-11.385c14.99-4.656,30.406-6.983,46.257-6.983c31.703,0,53.409,9.31,65.131,27.931
	c12.401-7.235,27.566-13.713,45.487-19.392c17.912-5.679,34.45-8.539,49.623-8.539c34.45,0,57.193,8.722,68.229,26.108
	C410.483,228.422,416,262.62,416,313.619V448h-18.085V314.654c0-45.484-4.138-75.73-12.411-90.721
	c-8.267-14.987-26.362-22.49-54.271-22.49c-14.819,0-29.642,2.16-44.455,6.464c-14.823,4.319-25.845,8.54-33.079,12.662
	l-11.371,6.198c6.197,16.895,9.303,45.85,9.303,86.852V448h-18.095V314.654c0-45.484-4.136-75.73-12.402-90.721
	c-8.272-14.987-26.361-22.49-54.277-22.49c-13.783,0-27.742,2.16-41.869,6.464c-14.135,4.319-24.811,8.54-32.047,12.662
	l-10.853,6.729V448z"/>
<path display="none" fill="#1155CC" d="M48,512c-26.51,0-48-21.49-48-48V48C0,21.49,21.49,0,48,0h352l112,112v352
	c0,26.51-21.49,48-48,48H48z M464,480c8.836,0,16-7.164,16-16V127.999l-48,0c-26.51,0-48-21.49-48-48V32H48c-8.836,0-16,7.164-16,16
	v416c0,8.836,7.164,16,16,16H464z"/>
<path display="none" fill="#1155CC" d="M240,32c8.836,0,16-7.164,16-16s-7.164-16-16-16H48C21.49,0,0,21.49,0,48v416
	c0,26.51,21.49,48,48,48h192c8.836,0,16-7.164,16-16s-7.164-16-16-16H48c-8.836,0-16-7.164-16-16V48c0-8.836,7.164-16,16-16H240z"/>
<path display="none" fill="#1155CC" d="M507.314,244.687L348.922,86.294c-6.248-6.248-16.379-6.249-22.627,0
	c-6.248,6.248-6.248,16.379,0,22.627L457.373,240H144c-8.836,0-16,7.164-16,16s7.164,16,16,16h313.373L326.295,403.078
	c-6.248,6.248-6.248,16.38,0,22.628c6.248,6.247,16.379,6.247,22.627,0l158.393-158.393
	C513.563,261.065,513.562,250.934,507.314,244.687z"/>
<path display="none" fill="#1155CC" d="M48,512c-26.51,0-48-21.49-48-48V48C0,21.49,21.49,0,48,0h304l160,160v304
	c0,26.51-21.49,48-48,48H48z"/>
<path display="none" fill="#FFFFFF" d="M82.088,448H64V189.553h18.088v20.684c3.099-1.725,7.235-4.053,12.402-6.969
	c5.174-2.931,15.249-6.73,30.244-11.386c14.99-4.655,30.406-6.983,46.258-6.983c31.703,0,53.409,9.311,65.131,27.932
	c12.402-7.235,27.566-13.713,45.487-19.393c17.912-5.679,34.45-8.539,49.623-8.539c34.45,0,57.193,8.723,68.229,26.109
	C410.483,228.422,416,262.62,416,313.619V448h-18.085V314.654c0-45.484-4.138-75.73-12.411-90.721
	c-8.267-14.987-26.362-22.49-54.271-22.49c-14.819,0-29.642,2.16-44.455,6.465c-14.823,4.319-25.845,8.539-33.079,12.662
	l-11.371,6.197c6.197,16.895,9.303,45.85,9.303,86.852V448h-18.095V314.654c0-45.484-4.136-75.73-12.402-90.721
	c-8.272-14.987-26.361-22.49-54.277-22.49c-13.783,0-27.742,2.16-41.868,6.465c-14.135,4.319-24.812,8.539-32.048,12.662
	l-10.853,6.729V448z"/>
<path fill="#1155CC" d="M32,272c0-8.836-7.164-16-16-16s-16,7.164-16,16v192c0,26.51,21.49,48,48,48h416c26.51,0,48-21.49,48-48V272
	c0-8.836-7.164-16-16-16s-16,7.164-16,16v192c0,8.836-7.164,16-16,16H48c-8.836,0-16-7.164-16-16V272z"/>
<path display="none" fill="#1155CC" d="M68.686,267.313l158.393,158.392c6.248,6.248,16.379,6.249,22.627,0
	c6.248-6.248,6.248-16.379,0-22.627L118.627,272H432c8.836,0,16-7.164,16-16s-7.164-16-16-16H118.627l131.078-131.079
	c6.248-6.248,6.248-16.38,0-22.628c-6.248-6.247-16.379-6.247-22.627,0L68.686,244.687
	C62.438,250.935,62.438,261.066,68.686,267.313z"/>
<path display="none" fill="#1155CC" d="M278.627,256L443.314,91.313c6.248-6.248,6.248-16.379,0-22.627
	c-6.248-6.248-16.38-6.248-22.628,0L256,233.373L91.313,68.686c-6.248-6.248-16.379-6.248-22.627,0
	c-6.248,6.248-6.248,16.379,0,22.627L233.373,256L68.686,420.688c-6.248,6.248-6.248,16.379,0,22.627s16.379,6.248,22.627,0
	L256,278.627l164.688,164.688c6.248,6.248,16.379,6.248,22.627,0s6.248-16.379,0-22.627L278.627,256z"/>
<path display="none" fill="#1155CC" d="M512,464c0,26.51-21.49,48-48,48H48c-26.51,0-48-21.49-48-48V48C0,21.49,21.49,0,48,0h416
	c26.51,0,48,21.49,48,48V464z M48,32c-8.836,0-16,7.164-16,16v416c0,8.836,7.164,16,16,16h416c8.836,0,16-7.164,16-16V48
	c0-8.836-7.163-16-16-16H48z"/>
<path display="none" fill="#1155CC" d="M48,512c-26.51,0-48-21.49-48-48V48C0,21.49,21.49,0,48,0h320l144,144v320
	c0,26.51-21.49,48-48,48H48z M464,480c8.836,0,16-7.164,16-16V160h-80c-26.51,0-48-21.49-48-48V32H48c-8.836,0-16,7.164-16,16v416
	c0,8.836,7.164,16,16,16H464z"/>
<path display="none" fill="#1155CC" d="M0,464c0,26.51,21.49,48,48,48h160c26.51,0,48-21.49,48-48V48c0-26.51-21.49-48-48-48H48
	C21.49,0,0,21.49,0,48V464z"/>
<circle display="none" fill="#1155CC" cx="496" cy="256" r="16"/>
<rect x="256" y="208" display="none" fill="#1155CC" width="96" height="96"/>
<circle display="none" fill="#1155CC" cx="368" cy="348" r="16"/>
</svg>
