<?xml version="1.0" encoding="utf-8"?>
<!-- Generator: Adobe Illustrator 15.1.0, SVG Export Plug-In  -->
<!DOCTYPE svg PUBLIC "-//W3C//DTD SVG 1.1//EN" "http://www.w3.org/Graphics/SVG/1.1/DTD/svg11.dtd" [
	<!ENTITY ns_flows "http://ns.adobe.com/Flows/1.0/">
]>
<svg version="1.1"
	 xmlns="http://www.w3.org/2000/svg" xmlns:xlink="http://www.w3.org/1999/xlink" xmlns:a="http://ns.adobe.com/AdobeSVGViewerExtensions/3.0/"
	 x="0px" y="0px" width="512px" height="512px" viewBox="0 0 512 512" enable-background="new 0 0 512 512" xml:space="preserve">
<defs>
</defs>
<path display="none" fill="#1155CC" d="M82.087,448H64V189.553h18.087v20.683c3.099-1.725,7.236-4.052,12.403-6.969
	c5.173-2.93,15.249-6.73,30.244-11.385c14.99-4.656,30.406-6.983,46.257-6.983c31.703,0,53.409,9.31,65.131,27.931
	c12.401-7.235,27.566-13.713,45.487-19.392c17.912-5.679,34.45-8.539,49.623-8.539c34.45,0,57.193,8.722,68.229,26.108
	C410.483,228.422,416,262.62,416,313.619V448h-18.085V314.654c0-45.484-4.138-75.73-12.411-90.721
	c-8.267-14.987-26.362-22.49-54.271-22.49c-14.819,0-29.642,2.16-44.455,6.464c-14.823,4.319-25.845,8.54-33.079,12.662
	l-11.371,6.198c6.197,16.895,9.303,45.85,9.303,86.852V448h-18.095V314.654c0-45.484-4.136-75.73-12.402-90.721
	c-8.272-14.987-26.361-22.49-54.277-22.49c-13.783,0-27.742,2.16-41.869,6.464c-14.135,4.319-24.811,8.54-32.047,12.662
	l-10.853,6.729V448z"/>
<rect x="480" y="127.999" display="none" fill="#1155CC" width="32" height="32"/>
<path display="none" fill="#1155CC" d="M48,512c-26.51,0-48-21.49-48-48V48C0,21.49,21.49,0,48,0h352l112,112v352
	c0,26.51-21.49,48-48,48H48z M464,480c8.836,0,16-7.164,16-16V127.999l-48,0c-26.51,0-48-21.49-48-48V32H48c-8.836,0-16,7.164-16,16
	v416c0,8.836,7.164,16,16,16H464z"/>
<path display="none" fill="#1155CC" d="M240,32c8.836,0,16-7.164,16-16s-7.164-16-16-16H48C21.49,0,0,21.49,0,48v416
	c0,26.51,21.49,48,48,48h192c8.836,0,16-7.164,16-16s-7.164-16-16-16H48c-8.836,0-16-7.164-16-16V48c0-8.836,7.164-16,16-16H240z"/>
<path display="none" fill="#1155CC" d="M507.314,244.687L348.922,86.294c-6.248-6.248-16.379-6.249-22.627,0
	c-6.248,6.248-6.248,16.379,0,22.627L457.373,240H144c-8.836,0-16,7.164-16,16s7.164,16,16,16h313.373L326.295,403.078
	c-6.248,6.248-6.248,16.38,0,22.628c6.248,6.247,16.379,6.247,22.627,0l158.393-158.393
	C513.563,261.065,513.562,250.934,507.314,244.687z"/>
<path display="none" fill="#1155CC" d="M48,512c-26.51,0-48-21.49-48-48V48C0,21.49,21.49,0,48,0h304l160,160v304
	c0,26.51-21.49,48-48,48H48z"/>
<path display="none" fill="#99BBFF" d="M512,160H400c-26.51,0-48-21.491-48-48V0L512,160z"/>
<path display="none" fill="#FFFFFF" d="M82.088,448H64V189.553h18.088v20.684c3.099-1.725,7.235-4.053,12.402-6.969
	c5.174-2.931,15.249-6.73,30.244-11.386c14.99-4.655,30.406-6.983,46.258-6.983c31.703,0,53.409,9.311,65.131,27.932
	c12.402-7.235,27.566-13.713,45.487-19.393c17.912-5.679,34.45-8.539,49.623-8.539c34.45,0,57.193,8.723,68.229,26.109
	C410.483,228.422,416,262.62,416,313.619V448h-18.085V314.654c0-45.484-4.138-75.73-12.411-90.721
	c-8.267-14.987-26.362-22.49-54.271-22.49c-14.819,0-29.642,2.16-44.455,6.465c-14.823,4.319-25.845,8.539-33.079,12.662
	l-11.371,6.197c6.197,16.895,9.303,45.85,9.303,86.852V448h-18.095V314.654c0-45.484-4.136-75.73-12.402-90.721
	c-8.272-14.987-26.361-22.49-54.277-22.49c-13.783,0-27.742,2.16-41.868,6.465c-14.135,4.319-24.812,8.539-32.048,12.662
	l-10.853,6.729V448z"/>
<path display="none" fill="#1155CC" d="M32,272c0-8.836-7.164-16-16-16s-16,7.164-16,16v192c0,26.51,21.49,48,48,48h416
	c26.51,0,48-21.49,48-48V272c0-8.836-7.164-16-16-16s-16,7.164-16,16v192c0,8.837-7.164,16-16,16H48c-8.836,0-16-7.164-16-16V272z"
	/>
<path display="none" fill="#1155CC" d="M244.687,4.686L86.294,163.078c-6.248,6.248-6.249,16.379,0,22.627
	c6.248,6.248,16.379,6.248,22.627,0L240,54.627V368c0,8.836,7.164,16,16,16s16-7.164,16-16V54.627l131.078,131.078
	c6.248,6.248,16.38,6.248,22.628,0c6.247-6.248,6.247-16.379,0-22.627L267.313,4.686C261.065-1.563,250.935-1.562,244.687,4.686z"/>
<path fill="#1155CC" d="M159.971,384c-4.418,0-8.418-1.791-11.313-4.686L36.687,267.313c-6.248-6.248-6.248-16.379-0.001-22.627
	l112-112h0.001C151.582,129.791,155.582,128,160,128h304c8.837,0,16,7.164,16,16v224c0,8.836-7.164,16-16,16H159.971z M464,416
	c26.509,0,48-21.49,48-48V144c0-26.51-21.49-48-48-48H160c-13.255,0-25.255,5.373-33.941,14.059L14.059,222.06
	c-18.745,18.744-18.745,49.137,0,67.881l111.971,112.001c8.687,8.686,20.687,14.059,33.941,14.059H464z"/>
<circle fill="#1155CC" cx="128" cy="256" r="32"/>
<path fill="#1155CC" d="M370,272h63.549c8.836,0,16-7.163,16-16c0-8.836-7.164-16-16-16L370,240l-0.451-64c0-8.836-7.163-16-16-16
	c-8.836,0-16,7.164-16,16l0.452,64h-64.452c-8.837,0-16,7.164-16,16s7.163,16,16,16h64.452l-0.451,64.001
	c0,8.836,7.163,15.999,15.999,15.999s16-7.163,16-15.999L370,272z"/>
<path display="none" fill="#1155CC" d="M68.686,267.313l158.393,158.392c6.248,6.248,16.379,6.249,22.627,0
	c6.248-6.248,6.248-16.379,0-22.627L118.627,272H432c8.836,0,16-7.164,16-16s-7.164-16-16-16H118.627l131.078-131.079
	c6.248-6.248,6.248-16.38,0-22.628c-6.248-6.247-16.379-6.247-22.627,0L68.686,244.687
	C62.438,250.935,62.438,261.066,68.686,267.313z"/>
<path display="none" fill="#1155CC" d="M278.627,256L443.314,91.313c6.248-6.248,6.248-16.379,0-22.627
	c-6.248-6.248-16.38-6.248-22.628,0L256,233.373L91.313,68.686c-6.248-6.248-16.379-6.248-22.627,0
	c-6.248,6.248-6.248,16.379,0,22.627L233.373,256L68.686,420.688c-6.248,6.248-6.248,16.379,0,22.627s16.379,6.248,22.627,0
	L256,278.627l164.688,164.688c6.248,6.248,16.379,6.248,22.627,0s6.248-16.379,0-22.627L278.627,256z"/>
<path display="none" fill="#1155CC" d="M80.001,112h352c8.838,0,16,7.164,16,16s-7.162,16-16,16H80.001c-8.836,0-16-7.164-16-16
	S71.165,112,80.001,112"/>
<path display="none" fill="#1155CC" d="M80.001,240h352c8.838,0,16,7.164,16,16s-7.162,16-16,16H80.001c-8.836,0-16-7.164-16-16
	C64.001,247.163,71.165,240,80.001,240"/>
<path display="none" fill="#1155CC" d="M80,367.999h352c8.838,0,16,7.164,16,16s-7.162,16-16,16H80c-8.836,0-16-7.164-16-16
	C64,375.162,71.164,367.999,80,367.999"/>
<circle display="none" fill="#1155CC" cx="256" cy="256" r="16"/>
<circle display="none" fill="#1155CC" cx="256" cy="128" r="16"/>
<circle display="none" fill="#1155CC" cx="256" cy="383.998" r="16"/>
<path display="none" fill="#1155CC" d="M288,256c0,17.673-14.327,32-32,32s-32-14.326-32-32s14.327-32,32-32S288,238.327,288,256z
	 M256,192c-35.346,0-64,28.654-64,64s28.654,64,64,64s64-28.653,64-64S291.346,192,256,192z"/>
<path display="none" fill="#1155CC" d="M288,100c0,17.674-14.327,32-32,32c-17.674,0-32-14.326-32-32c0-17.673,14.326-32,32-32
	C273.673,68,288,82.327,288,100z M256,36c-35.347,0-64,28.654-64,64c0,35.346,28.654,64,64,64c35.346,0,64-28.654,64-64
	C320,64.654,291.346,36,256,36z"/>
<path display="none" fill="#1155CC" d="M288,412c0,17.674-14.327,32-32,32c-17.674,0-32-14.326-32-32c0-17.673,14.326-32,32-32
	C273.673,380,288,394.327,288,412z M256,348c-35.347,0-64,28.654-64,64c0,35.347,28.654,64,64,64c35.346,0,64-28.653,64-64
	C320,376.654,291.346,348,256,348z"/>
<circle display="none" fill="#1155CC" cx="256" cy="256" r="32"/>
<circle display="none" fill="#1155CC" cx="256" cy="384.001" r="32"/>
<circle display="none" fill="#1155CC" cx="256" cy="128.001" r="32"/>
<path display="none" fill="#1155CC" d="M512,464c0,26.51-21.49,48-48,48H48c-26.51,0-48-21.49-48-48V48C0,21.49,21.49,0,48,0h416
	c26.51,0,48,21.49,48,48V464z M48,32c-8.836,0-16,7.164-16,16v416c0,8.836,7.164,16,16,16h416c8.836,0,16-7.164,16-16V48
	c0-8.836-7.163-16-16-16H48z"/>
<path display="none" fill="#1155CC" d="M448,96v368c0,8.836-7.164,16-16,16H80c-8.836,0-16-7.164-16-16V96H448z M16,64
	C7.164,64,0,71.164,0,80s7.164,16,16,16h16v368c0,26.51,21.49,48,48,48h352c26.51,0,48-21.49,48-48V96h16c8.836,0,16-7.164,16-16
	s-7.164-16-16-16H16z"/>
<path display="none" fill="#1155CC" d="M240,0c-26.51,0-48,21.49-48,48v16h32V48c0-8.836,7.164-16,16-16h32c8.836,0,16,7.164,16,16
	v16h32V48c0-26.51-21.49-48-48-48H240z"/>
<path display="none" fill="#1155CC" d="M160,144c0-8.836-7.164-16-16-16s-16,7.164-16,16v288c0,8.836,7.164,16,16,16s16-7.164,16-16
	V144z"/>
<path display="none" fill="#1155CC" d="M384,144c0-8.836-7.164-16-16-16s-16,7.164-16,16v288c0,8.836,7.164,16,16,16s16-7.164,16-16
	V144z"/>
<path display="none" fill="#1155CC" d="M272,144c0-8.836-7.164-16-16-16s-16,7.164-16,16v288c0,8.836,7.164,16,16,16s16-7.164,16-16
	V144z"/>
<g display="none">
	<path display="inline" fill="#1155CC" d="M249.051,27.255c3.895-7.891,10.268-7.891,14.162,0l64.823,131.347
		c3.895,7.891,14.206,15.383,22.915,16.648L495.9,196.313c8.709,1.266,10.678,7.326,4.377,13.469L395.389,312.021
		c-6.301,6.143-10.24,18.265-8.752,26.938l24.761,144.365c1.488,8.673-3.668,12.419-11.457,8.324l-129.646-68.161
		c-7.789-4.095-20.535-4.095-28.324,0l-129.646,68.161c-7.789,4.095-12.945,0.349-11.458-8.324l24.76-144.365
		c1.487-8.673-2.451-20.795-8.753-26.938L11.987,209.782c-6.302-6.142-4.333-12.203,4.376-13.469l144.95-21.063
		c8.708-1.266,19.02-8.757,22.915-16.648L249.051,27.255z M143.366,424.826c-1.487,8.673,3.668,12.419,11.458,8.324l87.146-45.817
		c7.789-4.095,20.535-4.095,28.324,0l87.146,45.817c7.789,4.095,12.945,0.349,11.457-8.324l-16.644-97.04
		c-1.488-8.673,2.451-20.795,8.752-26.938l70.505-68.723c6.301-6.143,4.332-12.204-4.377-13.469l-97.432-14.159
		c-8.709-1.266-19.021-8.757-22.915-16.648l-43.573-88.289c-3.895-7.891-10.268-7.891-14.162,0l-43.573,88.289
		c-3.895,7.891-14.206,15.383-22.915,16.648L85.13,218.657c-8.708,1.265-10.678,7.327-4.376,13.469l70.502,68.723
		c6.302,6.143,10.24,18.265,8.753,26.938L143.366,424.826z"/>
</g>
<path display="none" fill="#1155CC" d="M352,256c-8.837,0-16-7.163-16-16V64h16c8.837,0,16-7.164,16-16s-7.163-16-16-16H160
	c-8.836,0-16,7.164-16,16s7.164,16,16,16h16v176c0,8.836-7.164,16-16,16c-35.346,0-64,28.653-64,64v16c0,8.836,7.163,16,16,16h128
	v112c0,8.837,7.164,16,16,16c8.836,0,16-7.163,16-16V352h128c8.836,0,16-7.163,16-16v-16C416,284.653,387.346,256,352,256z M272,320
	h-32H128c0-17.645,14.355-32,32-32c26.467,0,48-21.533,48-48V64h96v176c0,26.467,21.533,48,48,48c17.645,0,32,14.355,32,32H272z"/>
<path display="none" fill="#1155CC" d="M48,512c-26.51,0-48-21.49-48-48V48C0,21.49,21.49,0,48,0h320l144,144v320
	c0,26.51-21.49,48-48,48H48z M464,480c8.836,0,16-7.164,16-16V160h-80c-26.51,0-48-21.49-48-48V32H48c-8.836,0-16,7.164-16,16v416
	c0,8.836,7.164,16,16,16H464z"/>
<path display="none" fill="#1155CC" d="M0,464c0,26.51,21.49,48,48,48h160c26.51,0,48-21.49,48-48V48c0-26.51-21.49-48-48-48H48
	C21.49,0,0,21.49,0,48V464z"/>
<circle display="none" fill="#1155CC" cx="496" cy="256" r="16"/>
<circle display="none" fill="#1155CC" cx="368" cy="145" r="16"/>
<rect x="256" y="208" display="none" fill="#1155CC" width="96" height="96"/>
<circle display="none" fill="#1155CC" cx="368" cy="348" r="16"/>
<path display="none" fill="#1155CC" d="M475.313,452.687L370.599,347.972C398.915,314.521,416,271.259,416,224
	c0-106.039-85.961-192-192-192C117.961,32,32,117.961,32,224c0,106.039,85.961,192,192,192c47.259,0,90.521-17.085,123.972-45.401
	l104.715,104.715c6.248,6.248,16.379,6.248,22.627,0S481.562,458.935,475.313,452.687z M64,224c0-88.365,71.635-160,160-160
	s160,71.635,160,160c0,88.366-71.635,160-160,160S64,312.366,64,224z"/>
<circle display="none" fill="#1155CC" cx="256" cy="256" r="16"/>
</svg>
